HIERARCHY
ROOT Pelvis
{
	OFFSET 0.000000 0.941512 0.000000
	CHANNELS 6 Xposition Yposition Zposition Zrotation Yrotation Xrotation 
	JOINT Pelvis_L_Hip
	{
		OFFSET 0.000000 0.000000 0.000000
		CHANNELS 3 Zrotation Yrotation Xrotation
		JOINT L_Hip
		{
			OFFSET 0.062321 -0.080322 -0.016990
			CHANNELS 3 Zrotation Yrotation Xrotation
			JOINT L_Knee
			{
				OFFSET 0.093051 -0.381305 -0.029784
				CHANNELS 3 Zrotation Yrotation Xrotation
				JOINT L_Ankle
				{
					OFFSET -0.010371 -0.431000 -0.033614
					CHANNELS 3 Zrotation Yrotation Xrotation
					End Site #name: L_Foot
					{
						OFFSET 0.069299 -0.038670 0.119418
					}
				}
			}
		}
	}
	JOINT Pelvis_R_Hip
	{
		OFFSET 0.000000 0.000000 0.000000
		CHANNELS 3 Zrotation Yrotation Xrotation
		JOINT R_Hip
		{
			OFFSET -0.055334 -0.094904 -0.002373
			CHANNELS 3 Zrotation Yrotation Xrotation
			JOINT R_Knee
			{
				OFFSET -0.064207 -0.384370 -0.019592
				CHANNELS 3 Zrotation Yrotation Xrotation
				JOINT R_Ankle
				{
					OFFSET 0.025418 -0.419734 -0.065953
					CHANNELS 3 Zrotation Yrotation Xrotation
					End Site #name: R_Foot
					{
						OFFSET -0.057233 -0.039888 0.132134
					}
				}
			}
		}
	}
	JOINT Pelvis_Spine1
	{
		OFFSET 0.000000 0.000000 0.000000
		CHANNELS 3 Zrotation Yrotation Xrotation
		JOINT Spine1
		{
			OFFSET -0.005562 0.124093 -0.043360
			CHANNELS 3 Zrotation Yrotation Xrotation
			JOINT Spine2
			{
				OFFSET 0.012244 0.139499 0.029894
				CHANNELS 3 Zrotation Yrotation Xrotation
				JOINT Spine3
				{
					OFFSET -0.002556 0.056561 0.009225
					CHANNELS 3 Zrotation Yrotation Xrotation
					JOINT Spine3_Neck
					{
						OFFSET 0.000000 0.000000 0.000000
						CHANNELS 3 Zrotation Yrotation Xrotation
						JOINT Neck
						{
							OFFSET -0.005205 0.217920 -0.024551
							CHANNELS 3 Zrotation Yrotation Xrotation
							End Site #name: Head
							{
								OFFSET 0.002365 0.091850 0.046637
							}
						}
					}
					JOINT Spine3_L_Collar
					{
						OFFSET 0.000000 0.000000 0.000000
						CHANNELS 3 Zrotation Yrotation Xrotation
						JOINT L_Collar
						{
							OFFSET 0.072225 0.116603 -0.009480
							CHANNELS 3 Zrotation Yrotation Xrotation
							JOINT L_Shoulder
							{
								OFFSET 0.115937 -0.058643 -0.021018
								CHANNELS 3 Zrotation Yrotation Xrotation
								JOINT L_Elbow
								{
									OFFSET 0.021994 -0.254722 -0.024492
									CHANNELS 3 Zrotation Yrotation Xrotation
									End Site #name: L_Wrist
									{
										OFFSET 0.048810 -0.240214 0.103329
									}
								}
							}
						}
					}
					JOINT Spine3_R_Collar
					{
						OFFSET 0.000000 0.000000 0.000000
						CHANNELS 3 Zrotation Yrotation Xrotation
						JOINT R_Collar
						{
							OFFSET -0.073372 0.120704 -0.024611
							CHANNELS 3 Zrotation Yrotation Xrotation
							JOINT R_Shoulder
							{
								OFFSET -0.108089 -0.054969 -0.020504
								CHANNELS 3 Zrotation Yrotation Xrotation
								JOINT R_Elbow
								{
									OFFSET -0.033684 -0.260739 0.009889
									CHANNELS 3 Zrotation Yrotation Xrotation
									End Site #name: R_Wrist
									{
										OFFSET -0.067980 -0.232763 0.118463
									}
								}
							}
						}
					}
				}
			}
		}
	}
}
MOTION
Frames: 5
Frame Time: 0.041667
0.000000 0.052757 0.000000 -0.381914 3.218131 89.942800 0.000000 0.000000 0.000000 17.801643 -5.048522 -6.460708 -20.308837 5.287797 12.559368 -3.163096 12.106770 17.404010 0.000000 0.000000 0.000000 -11.443018 3.581005 -8.039513 4.244832 -0.882550 14.497837 -4.366368 -19.900381 10.492866 0.000000 0.000000 0.000000 6.249370 -2.943763 0.490243 -3.657075 -0.344322 -12.583770 2.990309 3.445494 1.735033 0.000000 0.000000 0.000000 -10.706391 5.064771 -4.499036 0.000000 0.000000 0.000000 50.153215 -12.532352 -2.870316 42.242967 0.042797 -14.426373 87.807646 44.276093 -8.155651 0.000000 0.000000 0.000000 -59.949822 14.974077 -6.529400 -22.511343 -0.826770 0.602179 -87.734060 -51.975860 -16.989053 
-0.000528 0.046462 0.001504 -1.868418 3.465218 88.163709 0.000000 0.000000 0.000000 17.751454 -4.678166 -2.068079 -20.286876 4.714409 9.685428 -4.348642 11.346942 19.284449 0.000000 0.000000 0.000000 -10.527939 3.152090 -5.467512 3.126217 -0.442694 11.696141 2.361847 -9.833359 18.281903 0.000000 0.000000 0.000000 6.781995 -3.442645 2.026590 -3.140196 -0.324304 -12.166596 2.818816 4.788702 2.341203 0.000000 0.000000 0.000000 -11.484001 5.513592 -3.619773 0.000000 0.000000 0.000000 53.055958 -7.847944 4.038134 35.318383 2.390147 -25.622042 80.756298 44.599382 -15.010276 0.000000 0.000000 0.000000 -61.653489 13.625269 -4.426557 -20.339045 -1.009014 -4.414480 -88.900300 -52.166770 -16.131968 
-0.001037 0.046310 0.003528 -1.834588 3.499724 88.075611 0.000000 0.000000 0.000000 17.574603 -4.624399 -1.828364 -19.999281 4.628976 9.710243 -4.670086 11.002772 19.577361 0.000000 0.000000 0.000000 -10.412563 3.117451 -5.359978 3.004680 -0.406606 11.780626 2.814354 -9.284959 18.833502 0.000000 0.000000 0.000000 6.668324 -3.451800 2.366341 -2.742723 -0.380215 -12.698683 2.220449 4.644774 4.089663 0.000000 0.000000 0.000000 -11.227053 5.230336 -5.873090 0.000000 0.000000 0.000000 52.499888 -6.452574 5.693815 36.463821 3.008607 -27.502056 80.765888 45.083248 -15.481284 0.000000 0.000000 0.000000 -59.911115 12.500582 -2.947972 -21.626904 -1.205130 -6.468904 -88.757588 -52.505543 -16.541280 
-0.001323 0.046370 0.004078 -2.220224 3.835750 88.684987 0.000000 0.000000 0.000000 17.963125 -4.758549 -2.095975 -20.041777 4.563615 9.157705 -4.737779 11.058987 19.875727 0.000000 0.000000 0.000000 -10.453279 3.119426 -4.991801 5.434174 -1.110204 11.323646 19.233300 19.838815 24.254729 0.000000 0.000000 0.000000 7.032583 -3.486288 1.537370 -2.204237 -0.395954 -12.559704 2.108015 4.886823 3.773090 0.000000 0.000000 0.000000 -12.303975 5.926062 -3.672252 0.000000 0.000000 0.000000 51.337168 -6.364837 5.571903 37.228616 3.097134 -27.374973 80.006495 45.088113 -16.289084 0.000000 0.000000 0.000000 -60.072610 13.204217 -4.065008 -21.729591 -1.149119 -5.301639 -89.127272 -52.355447 -15.987047 
-0.001742 0.045276 0.004317 -1.961621 3.339584 86.586308 0.000000 0.000000 0.000000 17.226325 -4.325779 0.120085 -19.023978 4.296458 9.510453 -7.150468 7.501351 20.946099 0.000000 0.000000 0.000000 -10.775199 2.975625 -3.649163 4.278285 -0.774879 12.358156 22.432131 23.165380 26.691210 0.000000 0.000000 0.000000 5.848247 -3.481127 4.869112 -1.987265 -0.147425 -7.826970 2.178518 4.647031 -1.055184 0.000000 0.000000 0.000000 -12.800692 5.203226 -11.796479 0.000000 0.000000 0.000000 52.584531 -6.606627 5.863306 35.785895 2.725730 -26.698694 83.704048 44.996463 -13.255550 0.000000 0.000000 0.000000 -60.906675 10.171171 1.434767 -20.971250 -1.558407 -12.904225 -88.871026 -51.732368 -15.980828 
